<svg width="16" height="12" viewBox="0 0 16 12" fill="none" xmlns="http://www.w3.org/2000/svg">
<path d="M8 0.916668C4.36364 0.916668 1.25818 3.17849 0 6.37121C1.25818 9.56394 4.36364 11.8258 8 11.8258C11.6364 11.8258 14.7418 9.56394 16 6.37121C14.7418 3.17849 11.6364 0.916668 8 0.916668ZM8 10.0076C5.99273 10.0076 4.36364 8.37849 4.36364 6.37121C4.36364 4.36394 5.99273 2.73485 8 2.73485C10.0073 2.73485 11.6364 4.36394 11.6364 6.37121C11.6364 8.37849 10.0073 10.0076 8 10.0076ZM8 4.18939C6.79273 4.18939 5.81818 5.16394 5.81818 6.37121C5.81818 7.57849 6.79273 8.55303 8 8.55303C9.20727 8.55303 10.1818 7.57849 10.1818 6.37121C10.1818 5.16394 9.20727 4.18939 8 4.18939Z" fill="#4D4D4D"/>
</svg>
